<mxfile host="app.diagrams.net" agent="Mozilla/5.0 (Windows NT 10.0; Win64; x64) AppleWebKit/537.36 (KHTML, like Gecko) Chrome/132.0.0.0 Safari/537.36" version="26.0.10">
  <diagram name="Page-1" id="dsjjwfFCMxfXVxpgek93">
    <mxGraphModel dx="1979" dy="1092" grid="1" gridSize="10" guides="1" tooltips="1" connect="1" arrows="1" fold="1" page="1" pageScale="1" pageWidth="850" pageHeight="1100" math="0" shadow="0">
      <root>
        <mxCell id="0" />
        <mxCell id="1" parent="0" />
        <mxCell id="bYqKcSfbne9xst_vYMpZ-9" style="rounded=0;orthogonalLoop=1;jettySize=auto;html=1;shape=link;strokeColor=#B3B3B3;" edge="1" parent="1" source="bYqKcSfbne9xst_vYMpZ-2" target="bYqKcSfbne9xst_vYMpZ-3">
          <mxGeometry relative="1" as="geometry" />
        </mxCell>
        <mxCell id="bYqKcSfbne9xst_vYMpZ-10" value="1. Send Events" style="edgeLabel;html=1;align=center;verticalAlign=middle;resizable=0;points=[];" vertex="1" connectable="0" parent="bYqKcSfbne9xst_vYMpZ-9">
          <mxGeometry x="-0.1286" relative="1" as="geometry">
            <mxPoint as="offset" />
          </mxGeometry>
        </mxCell>
        <mxCell id="bYqKcSfbne9xst_vYMpZ-2" value="Windows 11 Client&lt;div&gt;Wazuh Agent&lt;/div&gt;" style="sketch=0;pointerEvents=1;shadow=0;dashed=0;html=1;strokeColor=none;fillColor=#505050;labelPosition=center;verticalLabelPosition=bottom;verticalAlign=top;outlineConnect=0;align=center;shape=mxgraph.office.devices.workstation_pc;" vertex="1" parent="1">
          <mxGeometry x="363.25" y="690" width="123" height="130" as="geometry" />
        </mxCell>
        <mxCell id="bYqKcSfbne9xst_vYMpZ-11" style="rounded=0;orthogonalLoop=1;jettySize=auto;html=1;shape=link;strokeColor=#B3B3B3;" edge="1" parent="1" source="bYqKcSfbne9xst_vYMpZ-3" target="bYqKcSfbne9xst_vYMpZ-4">
          <mxGeometry relative="1" as="geometry" />
        </mxCell>
        <mxCell id="bYqKcSfbne9xst_vYMpZ-3" value="Router" style="image;html=1;image=img/lib/clip_art/networking/Router_128x128.png" vertex="1" parent="1">
          <mxGeometry x="385.5" y="470" width="80" height="80" as="geometry" />
        </mxCell>
        <mxCell id="bYqKcSfbne9xst_vYMpZ-12" style="rounded=0;orthogonalLoop=1;jettySize=auto;html=1;shape=link;strokeColor=#B3B3B3;" edge="1" parent="1" source="bYqKcSfbne9xst_vYMpZ-4" target="bYqKcSfbne9xst_vYMpZ-6">
          <mxGeometry relative="1" as="geometry" />
        </mxCell>
        <mxCell id="bYqKcSfbne9xst_vYMpZ-13" value="2. Receive Events" style="edgeLabel;html=1;align=center;verticalAlign=middle;resizable=0;points=[];" vertex="1" connectable="0" parent="bYqKcSfbne9xst_vYMpZ-12">
          <mxGeometry x="0.0135" relative="1" as="geometry">
            <mxPoint as="offset" />
          </mxGeometry>
        </mxCell>
        <mxCell id="bYqKcSfbne9xst_vYMpZ-20" style="rounded=0;orthogonalLoop=1;jettySize=auto;html=1;shape=link;fillColor=#fad7ac;strokeColor=#b46504;" edge="1" parent="1" source="bYqKcSfbne9xst_vYMpZ-4" target="bYqKcSfbne9xst_vYMpZ-8">
          <mxGeometry relative="1" as="geometry">
            <Array as="points">
              <mxPoint x="700" y="410" />
            </Array>
          </mxGeometry>
        </mxCell>
        <mxCell id="bYqKcSfbne9xst_vYMpZ-27" value="7. Send &amp;amp; Recieve Email" style="edgeLabel;html=1;align=center;verticalAlign=middle;resizable=0;points=[];" vertex="1" connectable="0" parent="bYqKcSfbne9xst_vYMpZ-20">
          <mxGeometry x="-0.2092" y="-1" relative="1" as="geometry">
            <mxPoint as="offset" />
          </mxGeometry>
        </mxCell>
        <mxCell id="bYqKcSfbne9xst_vYMpZ-21" style="rounded=0;orthogonalLoop=1;jettySize=auto;html=1;shape=link;fillColor=#fad9d5;strokeColor=#ae4132;" edge="1" parent="1" source="bYqKcSfbne9xst_vYMpZ-4" target="bYqKcSfbne9xst_vYMpZ-8">
          <mxGeometry relative="1" as="geometry" />
        </mxCell>
        <mxCell id="bYqKcSfbne9xst_vYMpZ-28" value="8. Send Response Action" style="edgeLabel;html=1;align=center;verticalAlign=middle;resizable=0;points=[];" vertex="1" connectable="0" parent="bYqKcSfbne9xst_vYMpZ-21">
          <mxGeometry x="-0.0669" y="-4" relative="1" as="geometry">
            <mxPoint as="offset" />
          </mxGeometry>
        </mxCell>
        <mxCell id="bYqKcSfbne9xst_vYMpZ-4" value="Internet" style="outlineConnect=0;dashed=0;verticalLabelPosition=bottom;verticalAlign=top;align=center;html=1;shape=mxgraph.aws3.internet_3;fillColor=#bac8d3;strokeColor=#23445d;" vertex="1" parent="1">
          <mxGeometry x="385" y="300" width="79.5" height="54" as="geometry" />
        </mxCell>
        <mxCell id="bYqKcSfbne9xst_vYMpZ-5" value="TheHive" style="outlineConnect=0;dashed=0;verticalLabelPosition=bottom;verticalAlign=top;align=center;html=1;shape=mxgraph.aws3.internet_3;fillColor=#bac8d3;strokeColor=#23445d;" vertex="1" parent="1">
          <mxGeometry x="631.75" y="300" width="79.5" height="54" as="geometry" />
        </mxCell>
        <mxCell id="bYqKcSfbne9xst_vYMpZ-22" style="rounded=0;orthogonalLoop=1;jettySize=auto;html=1;shape=link;fillColor=#fad9d5;strokeColor=#ae4132;" edge="1" parent="1" source="bYqKcSfbne9xst_vYMpZ-6" target="bYqKcSfbne9xst_vYMpZ-2">
          <mxGeometry relative="1" as="geometry" />
        </mxCell>
        <mxCell id="bYqKcSfbne9xst_vYMpZ-29" value="9. Perform Responsive Action" style="edgeLabel;html=1;align=center;verticalAlign=middle;resizable=0;points=[];" vertex="1" connectable="0" parent="bYqKcSfbne9xst_vYMpZ-22">
          <mxGeometry x="0.1419" relative="1" as="geometry">
            <mxPoint as="offset" />
          </mxGeometry>
        </mxCell>
        <mxCell id="bYqKcSfbne9xst_vYMpZ-6" value="Wazuh Manager" style="outlineConnect=0;dashed=0;verticalLabelPosition=bottom;verticalAlign=top;align=center;html=1;shape=mxgraph.aws3.internet_3;fillColor=#bac8d3;strokeColor=#23445d;" vertex="1" parent="1">
          <mxGeometry x="120" y="300" width="79.5" height="54" as="geometry" />
        </mxCell>
        <mxCell id="bYqKcSfbne9xst_vYMpZ-7" value="Shuffle" style="outlineConnect=0;dashed=0;verticalLabelPosition=bottom;verticalAlign=top;align=center;html=1;shape=mxgraph.aws3.internet_3;fillColor=#bac8d3;strokeColor=#23445d;" vertex="1" parent="1">
          <mxGeometry x="385" y="40" width="79.5" height="54" as="geometry" />
        </mxCell>
        <mxCell id="bYqKcSfbne9xst_vYMpZ-8" value="SOC Analyst" style="sketch=0;pointerEvents=1;shadow=0;dashed=0;html=1;strokeColor=none;fillColor=#505050;labelPosition=center;verticalLabelPosition=bottom;verticalAlign=top;outlineConnect=0;align=center;shape=mxgraph.office.devices.workstation_pc;" vertex="1" parent="1">
          <mxGeometry x="640" y="470" width="123" height="130" as="geometry" />
        </mxCell>
        <mxCell id="bYqKcSfbne9xst_vYMpZ-14" style="rounded=0;orthogonalLoop=1;jettySize=auto;html=1;entryX=0.5;entryY=1;entryDx=0;entryDy=0;entryPerimeter=0;shape=link;fillColor=#d5e8d4;gradientColor=#97d077;strokeColor=#82b366;" edge="1" parent="1" source="bYqKcSfbne9xst_vYMpZ-4" target="bYqKcSfbne9xst_vYMpZ-7">
          <mxGeometry relative="1" as="geometry" />
        </mxCell>
        <mxCell id="bYqKcSfbne9xst_vYMpZ-24" value="4. Enrich IOCs" style="edgeLabel;html=1;align=center;verticalAlign=middle;resizable=0;points=[];" vertex="1" connectable="0" parent="bYqKcSfbne9xst_vYMpZ-14">
          <mxGeometry x="-0.2039" y="3" relative="1" as="geometry">
            <mxPoint as="offset" />
          </mxGeometry>
        </mxCell>
        <mxCell id="bYqKcSfbne9xst_vYMpZ-15" style="rounded=0;orthogonalLoop=1;jettySize=auto;html=1;entryX=0;entryY=0.7;entryDx=0;entryDy=0;entryPerimeter=0;shape=link;strokeColor=#10739e;fillColor=#b1ddf0;" edge="1" parent="1" source="bYqKcSfbne9xst_vYMpZ-6" target="bYqKcSfbne9xst_vYMpZ-7">
          <mxGeometry relative="1" as="geometry" />
        </mxCell>
        <mxCell id="bYqKcSfbne9xst_vYMpZ-23" value="3. Send Alerts" style="edgeLabel;html=1;align=center;verticalAlign=middle;resizable=0;points=[];" vertex="1" connectable="0" parent="bYqKcSfbne9xst_vYMpZ-15">
          <mxGeometry x="-0.0021" y="3" relative="1" as="geometry">
            <mxPoint as="offset" />
          </mxGeometry>
        </mxCell>
        <mxCell id="bYqKcSfbne9xst_vYMpZ-16" style="rounded=0;orthogonalLoop=1;jettySize=auto;html=1;entryX=0.17;entryY=0.2;entryDx=0;entryDy=0;entryPerimeter=0;shape=link;fillColor=#b1ddf0;strokeColor=#10739e;" edge="1" parent="1" source="bYqKcSfbne9xst_vYMpZ-7" target="bYqKcSfbne9xst_vYMpZ-5">
          <mxGeometry relative="1" as="geometry" />
        </mxCell>
        <mxCell id="bYqKcSfbne9xst_vYMpZ-25" value="5. Send Alerts" style="edgeLabel;html=1;align=center;verticalAlign=middle;resizable=0;points=[];" vertex="1" connectable="0" parent="bYqKcSfbne9xst_vYMpZ-16">
          <mxGeometry x="0.031" relative="1" as="geometry">
            <mxPoint as="offset" />
          </mxGeometry>
        </mxCell>
        <mxCell id="bYqKcSfbne9xst_vYMpZ-17" style="rounded=0;orthogonalLoop=1;jettySize=auto;html=1;entryX=0.77;entryY=0.25;entryDx=0;entryDy=0;entryPerimeter=0;shape=link;fillColor=#ffe6cc;strokeColor=#d79b00;" edge="1" parent="1" source="bYqKcSfbne9xst_vYMpZ-7" target="bYqKcSfbne9xst_vYMpZ-4">
          <mxGeometry relative="1" as="geometry">
            <Array as="points">
              <mxPoint x="520" y="240" />
            </Array>
          </mxGeometry>
        </mxCell>
        <mxCell id="bYqKcSfbne9xst_vYMpZ-26" value="6. Send Email" style="edgeLabel;html=1;align=center;verticalAlign=middle;resizable=0;points=[];" vertex="1" connectable="0" parent="bYqKcSfbne9xst_vYMpZ-17">
          <mxGeometry x="0.33" y="2" relative="1" as="geometry">
            <mxPoint as="offset" />
          </mxGeometry>
        </mxCell>
        <mxCell id="bYqKcSfbne9xst_vYMpZ-18" style="rounded=0;orthogonalLoop=1;jettySize=auto;html=1;entryX=0.17;entryY=0.2;entryDx=0;entryDy=0;entryPerimeter=0;shape=link;fillColor=#f8cecc;strokeColor=#b85450;" edge="1" parent="1" source="bYqKcSfbne9xst_vYMpZ-7" target="bYqKcSfbne9xst_vYMpZ-4">
          <mxGeometry relative="1" as="geometry">
            <Array as="points">
              <mxPoint x="320" y="240" />
            </Array>
          </mxGeometry>
        </mxCell>
        <mxCell id="bYqKcSfbne9xst_vYMpZ-30" value="8." style="edgeLabel;html=1;align=center;verticalAlign=middle;resizable=0;points=[];" vertex="1" connectable="0" parent="bYqKcSfbne9xst_vYMpZ-18">
          <mxGeometry x="0.06" y="-1" relative="1" as="geometry">
            <mxPoint y="1" as="offset" />
          </mxGeometry>
        </mxCell>
        <mxCell id="bYqKcSfbne9xst_vYMpZ-19" style="rounded=0;orthogonalLoop=1;jettySize=auto;html=1;entryX=0.38;entryY=0.02;entryDx=0;entryDy=0;entryPerimeter=0;fillColor=#fad9d5;strokeColor=#ae4132;shape=link;" edge="1" parent="1" source="bYqKcSfbne9xst_vYMpZ-7" target="bYqKcSfbne9xst_vYMpZ-6">
          <mxGeometry relative="1" as="geometry">
            <Array as="points">
              <mxPoint x="150" y="67" />
            </Array>
          </mxGeometry>
        </mxCell>
        <mxCell id="bYqKcSfbne9xst_vYMpZ-31" value="8. Send Response Action" style="edgeLabel;html=1;align=center;verticalAlign=middle;resizable=0;points=[];" vertex="1" connectable="0" parent="bYqKcSfbne9xst_vYMpZ-19">
          <mxGeometry x="0.326" y="-1" relative="1" as="geometry">
            <mxPoint as="offset" />
          </mxGeometry>
        </mxCell>
        <mxCell id="bYqKcSfbne9xst_vYMpZ-38" style="edgeStyle=orthogonalEdgeStyle;rounded=0;orthogonalLoop=1;jettySize=auto;html=1;" edge="1" parent="1" source="bYqKcSfbne9xst_vYMpZ-32" target="bYqKcSfbne9xst_vYMpZ-34">
          <mxGeometry relative="1" as="geometry" />
        </mxCell>
        <mxCell id="bYqKcSfbne9xst_vYMpZ-32" value="Windows 11&lt;div&gt;Send Events&lt;/div&gt;" style="text;html=1;align=center;verticalAlign=middle;resizable=0;points=[];autosize=1;strokeColor=none;fillColor=none;" vertex="1" parent="1">
          <mxGeometry x="43" y="960" width="90" height="40" as="geometry" />
        </mxCell>
        <mxCell id="bYqKcSfbne9xst_vYMpZ-40" style="edgeStyle=orthogonalEdgeStyle;rounded=0;orthogonalLoop=1;jettySize=auto;html=1;" edge="1" parent="1" source="bYqKcSfbne9xst_vYMpZ-34" target="bYqKcSfbne9xst_vYMpZ-39">
          <mxGeometry relative="1" as="geometry" />
        </mxCell>
        <mxCell id="bYqKcSfbne9xst_vYMpZ-34" value="Wazuh Manager&lt;div&gt;Trigger Events &amp;amp; Perform Response Actions&lt;/div&gt;" style="text;html=1;align=center;verticalAlign=middle;resizable=0;points=[];autosize=1;strokeColor=none;fillColor=none;" vertex="1" parent="1">
          <mxGeometry x="153" y="960" width="260" height="40" as="geometry" />
        </mxCell>
        <mxCell id="bYqKcSfbne9xst_vYMpZ-39" value="Shuffle&lt;div&gt;Receive Wazuh Alerts and Send Responsive Actions&lt;/div&gt;" style="text;html=1;align=center;verticalAlign=middle;resizable=0;points=[];autosize=1;strokeColor=none;fillColor=none;" vertex="1" parent="1">
          <mxGeometry x="463" y="960" width="300" height="40" as="geometry" />
        </mxCell>
        <mxCell id="bYqKcSfbne9xst_vYMpZ-41" value="OSINT&lt;div&gt;Enrich IOC&lt;/div&gt;" style="text;html=1;align=center;verticalAlign=middle;resizable=0;points=[];autosize=1;strokeColor=none;fillColor=none;" vertex="1" parent="1">
          <mxGeometry x="570" y="880" width="80" height="40" as="geometry" />
        </mxCell>
        <mxCell id="bYqKcSfbne9xst_vYMpZ-44" value="TheHive&lt;div&gt;Create Alert In Case Management&lt;/div&gt;" style="text;html=1;align=center;verticalAlign=middle;resizable=0;points=[];autosize=1;strokeColor=none;fillColor=none;" vertex="1" parent="1">
          <mxGeometry x="513" y="1030" width="200" height="40" as="geometry" />
        </mxCell>
        <mxCell id="bYqKcSfbne9xst_vYMpZ-45" style="edgeStyle=orthogonalEdgeStyle;rounded=0;orthogonalLoop=1;jettySize=auto;html=1;entryX=0.5;entryY=0;entryDx=0;entryDy=0;entryPerimeter=0;" edge="1" parent="1" source="bYqKcSfbne9xst_vYMpZ-39" target="bYqKcSfbne9xst_vYMpZ-44">
          <mxGeometry relative="1" as="geometry" />
        </mxCell>
        <mxCell id="bYqKcSfbne9xst_vYMpZ-46" style="edgeStyle=orthogonalEdgeStyle;rounded=0;orthogonalLoop=1;jettySize=auto;html=1;entryX=0.538;entryY=1.05;entryDx=0;entryDy=0;entryPerimeter=0;" edge="1" parent="1" source="bYqKcSfbne9xst_vYMpZ-39" target="bYqKcSfbne9xst_vYMpZ-41">
          <mxGeometry relative="1" as="geometry" />
        </mxCell>
        <mxCell id="bYqKcSfbne9xst_vYMpZ-47" value="Email&lt;div&gt;Send Email And Responsive Action&lt;/div&gt;" style="text;html=1;align=center;verticalAlign=middle;resizable=0;points=[];autosize=1;strokeColor=none;fillColor=none;" vertex="1" parent="1">
          <mxGeometry x="850" y="960" width="210" height="40" as="geometry" />
        </mxCell>
        <mxCell id="bYqKcSfbne9xst_vYMpZ-48" style="edgeStyle=orthogonalEdgeStyle;rounded=0;orthogonalLoop=1;jettySize=auto;html=1;entryX=0;entryY=0.5;entryDx=0;entryDy=0;entryPerimeter=0;" edge="1" parent="1" source="bYqKcSfbne9xst_vYMpZ-39" target="bYqKcSfbne9xst_vYMpZ-47">
          <mxGeometry relative="1" as="geometry" />
        </mxCell>
      </root>
    </mxGraphModel>
  </diagram>
</mxfile>
